# xmcd
#
# Track frame offsets:
#	150
#	24767
#	51112
#	76648
#	100393
#	126666
#	147322
#	167601
#	190488
#	208228
#	228789
#	249116
#	274387
#
# Disc length: 4141 seconds
#
# Revision: 2019661013
# Processed by: cddbd v1.5.2PL0 Copyright (c) Steve Scherf et al.
# Submitted via: EZCDAudioConverter 8.5.0.1
#
DISCID=b0102b0d
DTITLE=Shadowplay Project - Paint The Skies Blue Forever
DYEAR=2019
DGENRE=Blues Rock
TTITLE0=Moonchild
TTITLE1=Secret Agent
TTITLE2=Do You Read Me
TTITLE3=Bad Penny
TTITLE4=I Fall Apart
TTITLE5=Out On The Western Plain
TTITLE6=Wayward Child
TTITLE7=Messin' With The Kid
TTITLE8=Just Hit Town
TTITLE9=Same Old Story
TTITLE10=Walkin' Wounded
TTITLE11=Follow Me
TTITLE12=A Million Miles Away
EXTD=
EXTT0=
EXTT1=
EXTT2=
EXTT3=
EXTT4=
EXTT5=
EXTT6=
EXTT7=
EXTT8=
EXTT9=
EXTT10=
EXTT11=
EXTT12=
PLAYORDER=
